# xmcd CD database file
# Copyright (C) 1993-1996 Ti Kan
#
# Track frame offsets:
# 150
# 10028
# 20578
# 33983
# 46218
# 57588
# 69550
# 79585
# 91715
# 101915
#
# Disc length: 1487 seconds
#
# Revision: 0
# Processed by: cddbd v1.4b41PL1 Copyright (c) Steve Scherf et al.
# Submitted via: inCDius 1.1b5
#
DISCID=7505cd0a
DTITLE=Barbara Mandrell - In The Name Of Love
DYEAR=1900
DGENRE=
TTITLE0=In The Name Of Love
TTITLE1=This Time I Almost Made It
TTITLE2=Jamestown Ferry
TTITLE3=The Midnight Oil
TTITLE4=Kiss The Hurt Away
TTITLE5=We're Gonna Hold On
TTITLE6=Do Right Woman, Do Right Man
TTITLE7=Words
TTITLE8=Treat Him Right
TTITLE9=Wonder When My Baby's Comin' Home
EXTD=
EXTT0=
EXTT1=
EXTT2=
EXTT3=
EXTT4=
EXTT5=
EXTT6=
EXTT7=
EXTT8=
EXTT9=
PLAYORDER=
